<svg width="80" height="80" viewBox="0 0 80 80" fill="none" xmlns="http://www.w3.org/2000/svg">
<path d="M70 56.6666L67.9167 52.0833L63.3334 50L67.9167 47.9166L70 43.3333L72.0834 47.9166L76.6667 50L72.0834 52.0833L70 56.6666ZM53.3334 53.3333L49.1667 44.1666L40 40L49.1667 35.8333L53.3334 26.6666L57.5 35.8333L66.6667 40L57.5 44.1666L53.3334 53.3333ZM70 36.6666L67.9167 32.0833L63.3334 30L67.9167 27.9166L70 23.3333L72.0834 27.9166L76.6667 30L72.0834 32.0833L70 36.6666ZM23.3334 76.6666C21.5 76.6666 19.9311 76.0144 18.6267 74.71C17.32 73.4033 16.6667 71.8333 16.6667 70V9.99998C16.6667 8.16665 17.32 6.59665 18.6267 5.28998C19.9311 3.98554 21.5 3.33331 23.3334 3.33331H56.6667C58.5 3.33331 60.07 3.98554 61.3767 5.28998C62.6811 6.59665 63.3334 8.16665 63.3334 9.99998V23.3333H56.6667V20H23.3334V60H56.6667V56.6666H63.3334V70C63.3334 71.8333 62.6811 73.4033 61.3767 74.71C60.07 76.0144 58.5 76.6666 56.6667 76.6666H23.3334Z" fill="url(#paint0_linear_4_73)"/>
<defs>
<linearGradient id="paint0_linear_4_73" x1="46.6667" y1="3.33331" x2="46.6667" y2="76.6666" gradientUnits="userSpaceOnUse">
<stop stop-color="#E53C77"/>
<stop offset="1" stop-color="#8380DB"/>
</linearGradient>
</defs>
</svg>
