<svg width="32" height="32" viewBox="0 0 32 32" fill="none" xmlns="http://www.w3.org/2000/svg">
<path d="M16 2.6665C14.2491 2.6665 12.5152 3.01138 10.8976 3.68144C9.2799 4.35151 7.81004 5.33363 6.57193 6.57175C4.07144 9.07223 2.66669 12.4636 2.66669 15.9998C2.66669 21.8932 6.49335 26.8932 11.7867 28.6665C12.4534 28.7732 12.6667 28.3598 12.6667 27.9998V25.7465C8.97335 26.5465 8.18669 23.9598 8.18669 23.9598C7.57335 22.4132 6.70669 21.9998 6.70669 21.9998C5.49335 21.1732 6.80002 21.1998 6.80002 21.1998C8.13335 21.2932 8.84002 22.5732 8.84002 22.5732C10 24.5998 11.96 23.9998 12.72 23.6798C12.84 22.8132 13.1867 22.2265 13.56 21.8932C10.6 21.5598 7.49335 20.4132 7.49335 15.3332C7.49335 13.8532 8.00002 12.6665 8.86669 11.7198C8.73335 11.3865 8.26669 9.99984 9.00002 8.19984C9.00002 8.19984 10.12 7.83984 12.6667 9.55984C13.72 9.2665 14.8667 9.11984 16 9.11984C17.1334 9.11984 18.28 9.2665 19.3334 9.55984C21.88 7.83984 23 8.19984 23 8.19984C23.7334 9.99984 23.2667 11.3865 23.1334 11.7198C24 12.6665 24.5067 13.8532 24.5067 15.3332C24.5067 20.4265 21.3867 21.5465 18.4134 21.8798C18.8934 22.2932 19.3334 23.1065 19.3334 24.3465V27.9998C19.3334 28.3598 19.5467 28.7865 20.2267 28.6665C25.52 26.8798 29.3334 21.8932 29.3334 15.9998C29.3334 14.2489 28.9885 12.5151 28.3184 10.8974C27.6484 9.27972 26.6662 7.80986 25.4281 6.57175C24.19 5.33363 22.7201 4.35151 21.1025 3.68144C19.4848 3.01138 17.751 2.6665 16 2.6665Z" fill="white"/>
</svg>
