<svg width="32" height="32" viewBox="0 0 32 32" fill="none" xmlns="http://www.w3.org/2000/svg">
<g clip-path="url(#clip0_6_199)">
<path d="M24.447 24.452H20.893V18.883C20.893 17.555 20.866 15.846 19.041 15.846C17.188 15.846 16.905 17.291 16.905 18.785V24.452H13.351V13H16.765V14.561H16.811C17.288 13.661 18.448 12.711 20.181 12.711C23.782 12.711 24.448 15.081 24.448 18.166V24.452H24.447ZM9.337 11.433C9.06588 11.4331 8.79739 11.3798 8.54691 11.276C8.29642 11.1723 8.06886 11.0202 7.87724 10.8283C7.68562 10.6365 7.5337 10.4088 7.43019 10.1582C7.32668 9.90766 7.27361 9.63912 7.274 9.368C7.2742 8.95978 7.39544 8.56078 7.6224 8.22147C7.84936 7.88216 8.17184 7.61777 8.54907 7.46173C8.92629 7.30569 9.34131 7.26502 9.74165 7.34485C10.142 7.42469 10.5097 7.62144 10.7982 7.91024C11.0867 8.19903 11.2831 8.5669 11.3625 8.96731C11.442 9.36773 11.4009 9.78271 11.2445 10.1598C11.0881 10.5369 10.8234 10.8591 10.4839 11.0857C10.1443 11.3123 9.74522 11.4332 9.337 11.433ZM11.119 24.452H7.555V13H11.119V24.452ZM26.225 4H5.771C4.792 4 4 4.774 4 5.729V26.271C4 27.227 4.792 28 5.771 28H26.222C27.2 28 28 27.227 28 26.271V5.729C28 4.774 27.2 4 26.222 4H26.225Z" fill="white"/>
</g>
<defs>
<clipPath id="clip0_6_199">
<rect width="24" height="24" fill="white" transform="translate(4 4)"/>
</clipPath>
</defs>
</svg>
