<svg width="80" height="80" viewBox="0 0 80 80" fill="none" xmlns="http://www.w3.org/2000/svg">
<g clip-path="url(#clip0_4_65)">
<path d="M51.9792 34.4167L39.5834 22.0209L43.7396 17.8646C44.8577 16.7465 46.2314 16.1875 47.8609 16.1875C49.4884 16.1875 50.8612 16.7465 51.9792 17.8646L56.1355 22.0209C57.2535 23.1389 57.8125 24.5117 57.8125 26.1392C57.8125 27.7686 57.2535 29.1424 56.1355 30.2604L51.9792 34.4167ZM5.75004 68.25V55.8542L18.875 42.7292L3.48962 27.1979L17.2709 13.4167L32.7292 28.9479L35.5 26.1771L47.8959 38.5L45.125 41.2709L60.5105 56.8021L46.8021 70.5104L31.2709 55.0521L18.1459 68.25H5.75004ZM23.0313 38.5729L28.573 33.0313L25.073 29.5313L21.573 32.9584L17.4896 28.875L20.9167 25.375L17.198 21.7292L11.7292 27.2709L23.0313 38.5729ZM46.7292 62.2709L52.2709 56.7292L48.5521 53.0834L45.125 56.5104L40.9688 52.4271L44.4688 48.9271L40.8959 45.4271L35.3542 50.9688L46.7292 62.2709Z" fill="url(#paint0_linear_4_65)"/>
</g>
<defs>
<linearGradient id="paint0_linear_4_65" x1="32" y1="13.4167" x2="32" y2="70.5104" gradientUnits="userSpaceOnUse">
<stop stop-color="#E53C77"/>
<stop offset="1" stop-color="#8380DB"/>
</linearGradient>
<clipPath id="clip0_4_65">
<rect width="80" height="80" fill="white"/>
</clipPath>
</defs>
</svg>
