<svg width="80" height="80" viewBox="0 0 80 80" fill="none" xmlns="http://www.w3.org/2000/svg">
<path d="M54.5333 46.6667C54.8 44.4667 55 42.2667 55 40C55 37.7334 54.8 35.5334 54.5333 33.3334H65.8C66.3333 35.4667 66.6667 37.7 66.6667 40C66.6667 42.3 66.3333 44.5334 65.8 46.6667M48.6333 65.2C50.6333 61.5 52.1667 57.5 53.2333 53.3334H63.0667C59.8372 58.8943 54.7137 63.1067 48.6333 65.2ZM47.8 46.6667H32.2C31.8667 44.4667 31.6667 42.2667 31.6667 40C31.6667 37.7334 31.8667 35.5 32.2 33.3334H47.8C48.1 35.5 48.3333 37.7334 48.3333 40C48.3333 42.2667 48.1 44.4667 47.8 46.6667ZM40 66.5333C37.2333 62.5333 35 58.1 33.6333 53.3334H46.3667C45 58.1 42.7667 62.5333 40 66.5333ZM26.6667 26.6667H16.9333C20.1295 21.0907 25.2493 16.8716 31.3333 14.8C29.3333 18.5 27.8333 22.5 26.6667 26.6667ZM16.9333 53.3334H26.6667C27.8333 57.5 29.3333 61.5 31.3333 65.2C25.2621 63.1056 20.1495 58.8924 16.9333 53.3334ZM14.2 46.6667C13.6667 44.5334 13.3333 42.3 13.3333 40C13.3333 37.7 13.6667 35.4667 14.2 33.3334H25.4667C25.2 35.5334 25 37.7334 25 40C25 42.2667 25.2 44.4667 25.4667 46.6667M40 13.4334C42.7667 17.4334 45 21.9 46.3667 26.6667H33.6333C35 21.9 37.2333 17.4334 40 13.4334ZM63.0667 26.6667H53.2333C52.1901 22.5382 50.6452 18.553 48.6333 14.8C54.7667 16.9 59.8667 21.1334 63.0667 26.6667ZM40 6.66669C21.5667 6.66669 6.66666 21.6667 6.66666 40C6.66666 48.8406 10.1786 57.319 16.4298 63.5702C19.525 66.6655 23.1997 69.1208 27.2439 70.796C31.2881 72.4712 35.6226 73.3334 40 73.3334C48.8405 73.3334 57.319 69.8215 63.5702 63.5702C69.8214 57.319 73.3333 48.8406 73.3333 40C73.3333 35.6226 72.4711 31.2881 70.796 27.2439C69.1208 23.1997 66.6655 19.5251 63.5702 16.4298C60.4749 13.3345 56.8003 10.8792 52.7561 9.20404C48.7119 7.52888 44.3774 6.66669 40 6.66669Z" fill="url(#paint0_linear_4_45)"/>
<defs>
<linearGradient id="paint0_linear_4_45" x1="40" y1="6.66669" x2="40" y2="73.3334" gradientUnits="userSpaceOnUse">
<stop stop-color="#E53C77"/>
<stop offset="1" stop-color="#8380DB"/>
</linearGradient>
</defs>
</svg>
